<?xml version="1.0" standalone="no"?><!DOCTYPE svg PUBLIC "-//W3C//DTD SVG 1.1//EN" "http://www.w3.org/Graphics/SVG/1.1/DTD/svg11.dtd"><svg t="1723175525891" class="icon" viewBox="0 0 1024 1024" version="1.1" xmlns="http://www.w3.org/2000/svg" p-id="1748" xmlns:xlink="http://www.w3.org/1999/xlink" width="200" height="200"><path d="M405.312 170.688a277.312 277.312 0 0 0-196.48 473.088 42.688 42.688 0 1 1-60.416 60.16 362.688 362.688 0 1 1 564.736-447.808 277.312 277.312 0 0 1 167.36 491.136 42.688 42.688 0 1 1-54.4-65.792A192 192 0 0 0 704 341.376a69.12 69.12 0 0 1-59.52-33.92 277.184 277.184 0 0 0-239.104-136.768zM512 469.312c23.552 0 42.688 19.136 42.688 42.688v280.96l97.792-97.792a42.688 42.688 0 0 1 60.352 60.352L542.144 926.08a42.688 42.688 0 0 1-60.288 0l-170.688-170.624a42.688 42.688 0 1 1 60.352-60.352l97.792 97.792V512c0-23.552 19.136-42.688 42.688-42.688z" fill="#000000" p-id="1749"></path></svg>