<?xml version="1.0" standalone="no"?><!DOCTYPE svg PUBLIC "-//W3C//DTD SVG 1.1//EN" "http://www.w3.org/Graphics/SVG/1.1/DTD/svg11.dtd"><svg t="1723019300372" class="icon" viewBox="0 0 1024 1024" version="1.1" xmlns="http://www.w3.org/2000/svg" p-id="1487" xmlns:xlink="http://www.w3.org/1999/xlink" width="200" height="200"><path d="M832 272H512l-100.9-88.2c-17.5-15.3-40-23.8-63.2-23.8H192c-53 0-96 43-96 96v512c0 53 43 96 96 96h640c53 0 96-43 96-96V368c0-53-43-96-96-96z m32 496c0 17.6-14.4 32-32 32H192c-17.6 0-32-14.4-32-32V256c0-17.6 14.4-32 32-32h155.9c7.8 0 15.2 2.8 21.1 7.9l100.9 88.2L488 336h344c17.6 0 32 14.4 32 32v400z" fill="#1875F0" p-id="1488"></path></svg>