<?xml version="1.0" standalone="no"?><!DOCTYPE svg PUBLIC "-//W3C//DTD SVG 1.1//EN" "http://www.w3.org/Graphics/SVG/1.1/DTD/svg11.dtd"><svg t="1723027395313" class="icon" viewBox="0 0 1024 1024" version="1.1" xmlns="http://www.w3.org/2000/svg" p-id="9006" xmlns:xlink="http://www.w3.org/1999/xlink" width="200" height="200"><path d="M396.8 539.392a32 32 0 0 1 32-32h142.592a32 32 0 0 1 32 32v237.664a32 32 0 1 1-64 0V571.392h-78.624v205.664a32 32 0 1 1-64 0V539.392z" fill="#4eabdb" p-id="9007"></path><path d="M458.304 176.576a64 64 0 0 1 83.52 0l95.04 81.856a32 32 0 0 1-41.792 48.48l-95.008-81.824-276.992 238.624v305.12h554.016v-305.12l-104.768-90.24a32 32 0 1 1 41.76-48.48l104.768 90.24a64 64 0 0 1 22.24 48.48v305.12a64 64 0 0 1-64 64H223.04a64 64 0 0 1-64-64v-305.12a64 64 0 0 1 22.24-48.48l276.992-238.656z" fill="#4eabdb" p-id="9008"></path></svg>