<?xml version="1.0" standalone="no"?><!DOCTYPE svg PUBLIC "-//W3C//DTD SVG 1.1//EN" "http://www.w3.org/Graphics/SVG/1.1/DTD/svg11.dtd"><svg t="1723118939507" class="icon" viewBox="0 0 1024 1024" version="1.1" xmlns="http://www.w3.org/2000/svg" p-id="6003" xmlns:xlink="http://www.w3.org/1999/xlink" width="200" height="200"><path d="M136.45137 0.000267a49.029074 49.029074 0 0 0-35.803248 15.363334A54.172451 54.172451 0 0 0 85.418383 51.166849V972.566097a49.029074 49.029074 0 0 0 15.229739 36.070436 50.49861 50.49861 0 0 0 35.803248 15.363333H886.983627a49.296263 49.296263 0 0 0 35.870044-15.363333 50.765799 50.765799 0 0 0 15.363334-35.870045V290.100088L648.317575 0.000267z" fill="#EFEFEF" p-id="6004"></path><path d="M938.417397 290.100088H699.550954a52.502523 52.502523 0 0 1-51.233379-51.233378V0.000267zM85.418383 805.573337h852.999014v166.99276a51.099784 51.099784 0 0 1-51.099785 51.099784H136.518167A51.099784 51.099784 0 0 1 85.418383 972.632894v-166.992759-0.066798zM512.118281 411.002846A68.400234 68.400234 0 0 0 452.802453 513.669994a13.693406 13.693406 0 1 0 23.779769-13.693406 41.080219 41.080219 0 1 1 61.052553 11.75629l-8.884015 6.679711a68.533828 68.533828 0 0 0-30.192291 56.777538v68.600625a13.359421 13.359421 0 1 0 27.386812 0V575.256924A40.81303 40.81303 0 0 1 543.713311 541.056807h0.601174l9.752377-7.414479a68.467031 68.467031 0 0 0-29.390726-121.036351 74.411973 74.411973 0 0 0-12.557855-1.603131z m-109.012873 54.773625a13.960595 13.960595 0 0 0-9.418392 4.074623L311.72697 550.875981a13.827 13.827 0 0 0-4.876189 7.748464v0.333986a1.135551 1.135551 0 0 0 0 0.467579 10.553942 10.553942 0 0 0 0 2.53829v0.667971a2.07071 2.07071 0 0 1 0 0.667971v1.736725a13.359421 13.359421 0 0 0 4.675798 7.481276l82.160437 81.091684a13.693406 13.693406 0 0 0 20.039131-18.436001c0-0.400783-0.734768-0.734768-1.068753-1.068754l-73.476814-72.341263L412.724191 489.355849a13.760203 13.760203 0 0 0-9.819175-23.579378z m217.157384 0a13.693406 13.693406 0 0 0-13.359421 13.827001 13.359421 13.359421 0 0 0 4.208218 9.752377l73.476814 72.40806-73.476814 72.274466A13.693406 13.693406 0 0 0 629.013212 654.611883a8.08245 8.08245 0 0 0 1.068754-1.068754l82.160438-81.091683a13.760203 13.760203 0 0 0 5.076579-10.687537V561.095938a3.807435 3.807435 0 0 0 0-0.868362 1.001957 1.001957 0 0 0 0-0.46758 4.542203 4.542203 0 0 0 0-0.93516 13.827 13.827 0 0 0-5.009782-8.216043l-82.160438-80.757699a14.094189 14.094189 0 0 0-9.885971-4.074623zM510.915933 685.004565a14.227783 14.227783 0 1 0 1.001957 0z" fill="#8f54a3" p-id="6005"></path><path d="M462.220845 832.425773a16.36529 16.36529 0 0 0-16.098102 16.632479v64.325611a15.22974 15.22974 0 0 0 0 2.471493v64.659596a16.498885 16.498885 0 0 0 32.930972 0v-49.229465h65.795147v49.229465a16.498885 16.498885 0 0 0 32.930972 0v-62.655683a16.164899 16.164899 0 0 0 0-6.212131v-62.588886a16.36529 16.36529 0 0 0-16.231696-16.632479h-0.400783a16.36529 16.36529 0 0 0-16.298493 16.632479v49.296262h-65.861944v-49.296262a16.498885 16.498885 0 0 0-16.298494-16.632479z m-98.525728 0a49.496654 49.496654 0 0 0-48.89548 44.75406 16.966464 16.966464 0 0 0-0.46758 4.074623v98.859713a16.498885 16.498885 0 0 0 32.930972 0V928.480008a48.828683 48.828683 0 0 0 16.498885 3.072667 49.429857 49.429857 0 1 0 0-98.792916z m296.445546 0a49.496654 49.496654 0 0 0-48.962277 45.088045 16.966464 16.966464 0 0 0-0.46758 4.074623v98.859714a16.498885 16.498885 0 0 0 32.930972 0V928.480008a48.828683 48.828683 0 0 0 16.498885 3.072667 49.429857 49.429857 0 1 0 0-98.792916z m-296.445546 32.930972a16.498885 16.498885 0 1 1-16.498885 16.899667V881.722036a16.231696 16.231696 0 0 1 16.231696-16.231697z m296.445546 0a16.498885 16.498885 0 1 1-16.498885 16.899667V881.722036a16.231696 16.231696 0 0 1 16.231696-16.298494z" fill="#FFFFFF" p-id="6006"></path></svg>